# File created by Blade
# Date/Time:  Thu Sep 25 18:48:06 2014
# Frame Rate: 120.000 fps
#------------------------------------------------------
:FULLY-SPECIFIED
:DEGREES
1796
root 1.065007 32.829162 3.416614 3.658439 -8.281492 0.094183
Spine -21.866355 -1.973640 -1.274216
Head 25.507389 12.436241 7.768679
LeftShoulder 6.876038 31.165275 4.818981
LeftArm 137.198045 58.633140 45.078829
LeftForeArm 32.636057 -0.000000 120.119582
LeftHand 3.419041 0.000000 -26.221350
LeftHandThumb1 -26.253704 0.000000 33.147579
RightShoulder -19.603791 20.994845 -43.712631
RightArm 108.786803 34.941812 82.722905
RightForeArm 49.757994 0.000000 147.006717
RightHand 9.912678 -0.000000 -5.739450
RightHandThumb1 -24.326973 -0.000000 -32.862282
LeftUpLeg 7.896969 15.892405 4.359519
LeftLeg -2.481408 -0.000000 0.000000
LeftFoot -10.274318 3.332484 -16.488427
LeftToeBase 11.366006 -0.000000 -0.000000
RightUpLeg 3.701365 -3.689848 -7.253125
RightLeg 0.166305 -0.000000 -0.000000
RightFoot -7.060902 -1.536073 5.111704
RightToeBase 0.188104 -0.000000 -0.000000
1797
root 1.061225 32.829273 3.411518 3.675010 -8.312037 0.089079
Spine -21.912521 -1.986477 -1.306800
Head 25.596795 12.159275 7.685496
LeftShoulder 6.878014 31.169677 4.874101
LeftArm 137.248355 58.554528 45.074973
LeftForeArm 32.492035 0.000000 120.081812
LeftHand 3.462001 -0.000000 -26.389284
LeftHandThumb1 -26.253704 0.000000 33.147579
RightShoulder -19.530396 20.716070 -43.480774
RightArm 108.933833 35.049113 82.030864
RightForeArm 49.387489 -0.000000 147.167470
RightHand 10.167117 0.000000 -3.344568
RightHandThumb1 -24.326973 -0.000000 -32.862282
LeftUpLeg 7.864616 15.916952 4.360597
LeftLeg -2.446295 -0.000000 0.000000
LeftFoot -10.326273 3.356783 -16.422239
LeftToeBase 11.521738 -0.000000 -0.000000
RightUpLeg 3.664639 -3.668871 -7.243372
RightLeg 0.179188 -0.000000 -0.000000
RightFoot -7.073138 -1.524533 5.137436
RightToeBase 0.218292 -0.000000 -0.000000
1798
root 1.055909 32.829338 3.406719 3.694343 -8.356363 0.074979
Spine -21.951919 -1.993557 -1.328313
Head 25.776194 12.013434 7.812661
LeftShoulder 6.802444 31.126456 4.873269
LeftArm 137.273329 58.492434 45.114224
LeftForeArm 32.253699 0.000000 120.161852
LeftHand 3.752091 0.000000 -26.892604
LeftHandThumb1 -26.253704 0.000000 33.147579
RightShoulder -19.438164 20.301583 -43.137227
RightArm 109.263549 35.225206 81.247059
RightForeArm 48.633990 -0.000000 147.418451
RightHand 10.350941 -0.000000 -1.348800
RightHandThumb1 -24.326973 -0.000000 -32.862282
LeftUpLeg 7.841314 15.929176 4.376723
LeftLeg -2.443940 -0.000000 0.000000
LeftFoot -10.301776 3.344278 -16.515955
LeftToeBase 11.433802 -0.000000 -0.000000
RightUpLeg 3.630494 -3.627629 -7.220004
RightLeg 0.181351 -0.000000 -0.000000
RightFoot -7.096165 -1.490690 5.175741
RightToeBase 0.323245 -0.000000 -0.000000
1799
root 1.052320 32.828408 3.401053 3.707380 -8.401240 0.067488
Spine -21.951363 -1.985615 -1.364133
Head 26.118631 12.060770 8.347979
LeftShoulder 6.740214 31.050659 4.898400
LeftArm 137.391278 58.412502 45.166963
LeftForeArm 32.073867 0.000000 120.148078
LeftHand 3.665046 -0.000000 -26.952187
LeftHandThumb1 -26.253704 0.000000 33.147579
RightShoulder -19.534095 20.150077 -43.091024
RightArm 109.042447 35.276419 80.307749
RightForeArm 47.126543 -0.000000 147.895547
RightHand 10.683311 -0.000000 1.135097
RightHandThumb1 -24.326973 -0.000000 -32.862282
LeftUpLeg 7.821582 15.930491 4.378003
LeftLeg -2.425685 -0.000000 0.000000
LeftFoot -10.357056 3.414765 -16.436917
LeftToeBase 11.495808 -0.000000 -0.000000
RightUpLeg 3.593592 -3.613141 -7.209358
RightLeg 0.197586 -0.000000 -0.000000
RightFoot -7.084387 -1.525672 5.097145
RightToeBase 0.188103 -0.000000 -0.000000
